<svg width="67" height="25" viewBox="0 0 67 25" fill="none" xmlns="http://www.w3.org/2000/svg">
<path d="M11.2679 24.4571C8.02289 24.4571 6.26503 22.9145 5.27359 20.464C4.46205 18.4678 4.19191 15.881 4.1468 13.1131H22.0401C22.0852 8.16733 20.192 5.30862 16.947 3.99253C17.6232 5.80769 17.8482 7.94022 17.8933 10.1636H4.19191C4.28215 7.80395 4.50716 5.76226 5.13824 4.03795C2.028 5.26377 0 7.80453 0 12.2513C0 16.698 2.028 19.2842 5.27359 20.464C6.94122 21.0539 9.01433 21.3259 11.2679 21.3259C13.116 21.3259 15.2342 21.1442 17.2171 20.5089C19.5158 19.7373 21.4536 18.3309 21.9493 16.0621H17.758C17.7128 17.741 17.5775 19.2836 17.2171 20.5089C16.4958 22.9594 14.8282 24.4566 11.2679 24.4566V24.4571ZM5.13824 4.03853C6.03944 1.58804 7.7973 0 11.2228 0C14.2879 0 16.0452 1.67889 16.947 3.99311C15.3245 3.35777 13.3861 3.08582 11.2228 3.08582C8.92409 3.08582 6.85098 3.35835 5.13824 4.03853ZM34.6147 24.8205C33.2178 24.8205 32.7666 23.8678 32.5416 22.6426L28.3046 0.544489H24.5187L27.6284 15.3825C28.2143 18.105 29.882 19.8747 32.1355 20.6463C32.902 20.8734 33.758 21.0091 34.6147 21.0091C35.4714 21.0091 36.3275 20.8728 37.0939 20.6463C39.3475 19.8747 41.0151 18.1055 41.601 15.3825L44.7107 0.544489H40.9249L36.6884 22.6426C36.4628 23.8678 35.8774 24.8205 34.6153 24.8205H34.6147ZM55.4823 24.4571C59.6742 24.4571 61.5669 21.5076 62.5583 18.2861H62.6486V23.9126H66.7051V23.731C66.4344 21.8704 66.3899 19.1934 66.3899 16.0627V9.43799C66.3899 5.94395 64.9021 4.31049 62.5583 3.58488C62.6034 3.90226 62.6486 4.40133 62.6486 4.85555C62.6486 7.94137 60.8462 9.48399 58.6371 10.6184L56.8798 11.5257L62.6486 10.7087V17.787C61.4767 19.7384 58.8176 21.5984 53.9049 21.5984C53.0037 21.5984 52.0117 21.5076 50.9752 21.2356C51.4258 23.187 52.6879 24.4571 55.4823 24.4571ZM47.0088 16.9251C47.0088 14.2481 48.8569 12.6601 52.327 12.161L56.8793 11.5257L55.9775 11.9793C53.2282 13.3857 50.7947 15.2008 50.7947 19.3756C50.7947 20.011 50.8398 20.6463 50.9752 21.2362C48.8569 20.6463 47.0088 19.3756 47.0088 16.9257V16.9251ZM47.6399 7.84995H51.6514C51.6514 6.17106 51.7416 4.71928 52.0117 3.58488C49.6228 4.22022 47.6399 5.49088 47.6399 7.84995ZM52.0117 3.58488C52.5977 1.27066 54.0848 0 57.3755 0C60.4852 0 62.1528 0.952711 62.5583 3.58488C61.0712 3.08582 59.2682 2.99497 57.2853 2.99497C55.6177 2.99497 53.7245 3.13124 52.0117 3.58488Z" fill="white"/>
</svg>
